<svg width="15" height="16" viewBox="0 0 15 16" fill="none" xmlns="http://www.w3.org/2000/svg">
<path fill-rule="evenodd" clip-rule="evenodd" d="M4.32931 13.5987C4.55711 13.8265 4.55711 14.1959 4.32931 14.4237L3.45431 15.2987C3.2265 15.5265 2.85716 15.5265 2.62935 15.2987C2.40154 15.0709 2.40154 14.7015 2.62935 14.4737L3.50435 13.5987C3.73216 13.3709 4.1015 13.3709 4.32931 13.5987Z" fill="white"/>
<path fill-rule="evenodd" clip-rule="evenodd" d="M0 11.9906C0 11.6684 0.261167 11.4072 0.583333 11.4072H2.04167C2.36383 11.4072 2.625 11.6684 2.625 11.9906C2.625 12.3127 2.36383 12.5739 2.04167 12.5739H0.583333C0.261167 12.5739 0 12.3127 0 11.9906Z" fill="white"/>
<path fill-rule="evenodd" clip-rule="evenodd" d="M9.05722 1.00002C9.49262 0.56461 10.1986 0.56461 10.634 1.00002L14.4168 4.78287C14.8522 5.21827 14.8522 5.92421 14.4168 6.35962L8.90582 11.8706H14.1311C14.439 11.8706 14.6886 12.1202 14.6886 12.4281C14.6886 12.736 14.439 12.9855 14.1311 12.9855H5.98442C5.38193 12.9855 4.80412 12.7462 4.3781 12.3202L2.66389 10.606C1.77675 9.71883 1.77675 8.28049 2.66389 7.39334L9.05722 1.00002ZM7.32907 11.8706L13.6284 5.57124L9.84559 1.78839L5.07617 6.55782L8.1163 9.52022C8.3368 9.73508 8.34137 10.088 8.12651 10.3085C7.91164 10.529 7.5587 10.5336 7.3382 10.3187L4.28772 7.34626L3.45227 8.18172C3.00053 8.63345 3.00053 9.36586 3.45227 9.8176L5.16648 11.5318C5.38341 11.7487 5.67763 11.8706 5.98442 11.8706H7.32907Z" fill="white"/>
</svg>
